<svg xmlns="http://www.w3.org/2000/svg" width="20" height="20" viewBox="0 0 20 20">
    <g fill="#B3B3B3" fill-rule="evenodd">
        <path fill-rule="nonzero" d="M7.306 15.588l.82-.82A9.151 9.151 0 0 0 10.18 15c3.002 0 5.771-1.423 8.348-4.338a1 1 0 0 0 0-1.324c-.842-.953-1.705-1.746-2.59-2.383l.715-.715a16.97 16.97 0 0 1 2.624 2.435 2 2 0 0 1 0 2.65C16.522 14.442 13.49 16 10.181 16c-.983 0-1.94-.137-2.875-.412zm-1.045-.37c-1.822-.753-3.548-2.05-5.177-3.893a2 2 0 0 1 0-2.65C3.84 5.558 6.872 4 10.18 4c1.976 0 3.853.556 5.632 1.667l-.727.727C13.52 5.461 11.889 5 10.18 5 7.179 5 4.41 6.423 1.833 9.338a1 1 0 0 0 0 1.324c1.651 1.868 3.381 3.123 5.201 3.784l-.773.773z"/>
        <path d="M17.571 2.5l.707.707-15 15-.707-.707z"/>
        <path fill-rule="nonzero" d="M10 8a2 2 0 0 0-1.415 3.413c.001.001.942-.944 2.822-2.835A1.993 1.993 0 0 0 10 8zm2.74.654L8.61 12.82c-.184-.118-.58-.546-.732-.7a3 3 0 0 1 4.226-4.259c.154.152.517.612.636.793z"/>
    </g>
</svg>
