<svg xmlns="http://www.w3.org/2000/svg" width="20" height="20" viewBox="0 0 20 20">
    <g fill="#B3B3B3" fill-rule="nonzero">
        <path d="M10.181 15c3.002 0 5.771-1.423 8.348-4.338a1 1 0 0 0 0-1.324C15.952 6.423 13.183 5 10.181 5 7.179 5 4.41 6.423 1.833 9.338a1 1 0 0 0 0 1.324C4.41 13.577 7.179 15 10.18 15zm0 1c-3.309 0-6.341-1.558-9.097-4.675a2 2 0 0 1 0-2.65C3.84 5.558 6.872 4 10.18 4c3.309 0 6.341 1.558 9.097 4.675a2 2 0 0 1 0 2.65C16.522 14.442 13.49 16 10.181 16z"/>
        <path d="M10 12a2 2 0 1 0 0-4 2 2 0 0 0 0 4zm0 1a3 3 0 1 1 0-6 3 3 0 0 1 0 6z"/>
    </g>
</svg>
